<svg xmlns="http://www.w3.org/2000/svg" viewBox="0 0 500 500"><g id="freepik--background-complete--inject-69"><path d="M428.63,403s21.11,3.07,22,20.21S423.86,440,423.86,440,423,454.87,402,461.26s-36.7-7.61-36.7-7.61-5.22,7.08-16.52,7.36-15.69-7.8-15.69-7.8-12,5.36-24.2,1.53-15.63-13.13-15.63-13.13-16.49,2.62-20.17-10.83,14.69-18.52,14.69-18.52S287,390.2,303.91,383c20.66-8.83,38.94.69,38.94.69S362.5,358.1,394,362.13,428.63,403,428.63,403Z" style="fill:#ebebeb"></path><path d="M205.41,175s21.11,3.07,22,20.21-26.75,16.77-26.75,16.77-.91,14.86-21.87,21.25-36.71-7.61-36.71-7.61-5.22,7.08-16.51,7.36-15.69-7.8-15.69-7.8-12,5.35-24.2,1.53S70,213.54,70,213.54s-16.5,2.61-20.17-10.83,14.69-18.52,14.69-18.52-.74-22.06,16.13-29.26c20.67-8.83,38.95.69,38.95.69s19.65-25.59,51.11-21.56S205.41,175,205.41,175Z" style="fill:#ebebeb"></path></g><g id="freepik--Moon--inject-69"><path d="M205.52,62.77c-31,7.81-124.75,49-139.31,171.88-7.21,60.91,17.3,114.17,56.66,153.1,45.62,45.12,127.23,69.62,212.24,30.58,79.93-36.7,101.68-143,99.83-146.71s-6.24.92-14.56,8.55-51.29,57.52-134.46,50.59c-31.73-2.64-64.12-18.26-83.62-35.62-29.17-25.95-46.12-73.39-41.13-118.25,8.31-74.85,49.55-106.73,52-110.2S212.16,61.1,205.52,62.77Z" style="fill:#FFC727"></path><path d="M205.52,62.77c-31,7.81-124.75,49-139.31,171.88-7.21,60.91,17.3,114.17,56.66,153.1,45.62,45.12,127.23,69.62,212.24,30.58,79.93-36.7,101.68-143,99.83-146.71s-6.24.92-14.56,8.55-51.29,57.52-134.46,50.59c-31.73-2.64-64.12-18.26-83.62-35.62-29.17-25.95-46.12-73.39-41.13-118.25,8.31-74.85,49.55-106.73,52-110.2S212.16,61.1,205.52,62.77Z" style="fill:#fff;opacity:0.4"></path><path d="M111.31,142c-15.6,35.16-29.22,77.17-27.15,115.94,4.08,54.54,35.59,106.61,83.1,134.11,3.22,1.74,8.28,4.69,11.62,6.16l6,2.83c1.84.73,7.32,3.06,9.14,3.79,4.82,1.68,10.8,3.87,15.73,5.14a233.15,233.15,0,0,0,25.94,5.8c22.14,3.5,44.48,4,67,2.79a252.19,252.19,0,0,1-67.72,2.9,199.18,199.18,0,0,1-40.31-8.14l-3.3-1-3.24-1.18c-3.94-1.35-9.12-3.41-12.83-5.13-54-23.75-90.81-75.7-98.29-133.84-5.79-43.71,12.33-93,34.37-130.17Z" style="fill:#fff;opacity:0.2"></path></g><g id="freepik--Stars--inject-69"><path d="M60.15,219.59c0,.37-.64.37-.66,0-.3-16.55-.61-33.1-.76-49.66q-.09-10.84-.19-21.69-.2-21.79-.36-43.58Q57.77,52.34,57.41,0h1.1q.2,20.34.41,40.69.12,11.85.25,23.73.21,20.13.41,40.28C60,143,60.21,181.29,60.15,219.59Z" style="fill:#FFC727"></path><path d="M61.88,0q-.47,20.36-.9,40.73-.69,32-1.4,64-.49,21.76-1,43.55-.9,35.67-2.09,71.32c0,.37-.65.36-.65,0,.22-16.56.45-33.1.84-49.66q.75-32.61,1.54-65.23l1-40.25Q60,32.2,60.78,0Z" style="fill:#FFC727"></path><g style="opacity:0.2"><path d="M60.15,219.59c0,.37-.64.37-.66,0-.3-16.55-.61-33.1-.76-49.66q-.09-10.84-.19-21.69-.2-21.79-.36-43.58Q57.77,52.34,57.41,0h1.1q.2,20.34.41,40.69.12,11.85.25,23.73.21,20.13.41,40.28C60,143,60.21,181.29,60.15,219.59Z"></path><path d="M61.88,0q-.47,20.36-.9,40.73-.69,32-1.4,64-.49,21.76-1,43.55-.9,35.67-2.09,71.32c0,.37-.65.36-.65,0,.22-16.56.45-33.1.84-49.66q.75-32.61,1.54-65.23l1-40.25Q60,32.2,60.78,0Z"></path></g><path d="M81,222.33c5.07,9.65,8.19,18,6.1,19.72s-10,.08-19.46-2.91C60.64,246.85,54,252.37,51.2,251c-2.64-1.34-3.78-9.6-3.85-19.69-9.45-4.39-16.84-9.06-16.84-12.07s8-6.58,18.08-9.61c1.33-11.23,3.62-20.46,6.29-21,2.85-.56,9.14,6.67,15.47,16,10-1.64,18.29-2,19.29.16S86.73,214.14,81,222.33Z" style="fill:#FFC727"></path><path d="M451,219.59c0,.37-.64.37-.65,0-.31-16.55-.61-33.1-.77-49.66q-.09-10.84-.19-21.69l-.36-43.58Q448.65,52.34,448.28,0h1.1l.42,40.69L450,64.42q.22,20.13.41,40.28C450.82,143,451.09,181.29,451,219.59Z" style="fill:#FFC727"></path><path d="M452.75,0q-.45,20.36-.89,40.73-.71,32-1.41,64-.48,21.76-1,43.55-.9,35.67-2.09,71.32c0,.37-.65.36-.65,0,.23-16.56.46-33.1.84-49.66q.75-32.61,1.54-65.23l1-40.25L451.66,0Z" style="fill:#FFC727"></path><g style="opacity:0.2"><path d="M451,219.59c0,.37-.64.37-.65,0-.31-16.55-.61-33.1-.77-49.66q-.09-10.84-.19-21.69l-.36-43.58Q448.65,52.34,448.28,0h1.1l.42,40.69L450,64.42q.22,20.13.41,40.28C450.82,143,451.09,181.29,451,219.59Z"></path><path d="M452.75,0q-.45,20.36-.89,40.73-.71,32-1.41,64-.48,21.76-1,43.55-.9,35.67-2.09,71.32c0,.37-.65.36-.65,0,.23-16.56.46-33.1.84-49.66q.75-32.61,1.54-65.23l1-40.25L451.66,0Z"></path></g><path d="M458.61,231.86c.31,7.72-.24,14-2.09,14.48s-6.45-3-11.58-7.78c-6.82,2.81-12.75,4.33-14.11,2.57s.49-7.3,3.52-13.78c-4.72-5.68-8-10.91-7.12-12.84s7.11-1.79,14.5-.66c4.26-6.79,8.53-12,10.4-11.53s3.83,7.05,5.05,14.94c6.92,2,12.31,4.3,12.31,6S464.76,228.36,458.61,231.86Z" style="fill:#FFC727"></path><path d="M213.5,136.6c0,.23-.65.24-.66,0-.3-10.3-.61-20.59-.76-30.89q-.11-6.75-.19-13.5-.19-13.55-.36-27.11-.41-32.55-.77-65.11h1.1q.19,12.66.41,25.31.12,7.38.25,14.76.21,12.52.41,25.06C213.29,89,213.56,112.78,213.5,136.6Z" style="fill:#FFC727"></path><path d="M215.23,0q-.47,12.66-.9,25.34-.69,19.89-1.4,39.79-.5,13.55-1,27.09-.9,22.2-2.09,44.37c0,.23-.65.22-.65,0,.22-10.3.45-20.6.84-30.9q.75-20.28,1.54-40.58l1-25q.79-20,1.61-40.07Z" style="fill:#FFC727"></path><g style="opacity:0.2"><path d="M213.5,136.6c0,.23-.65.24-.66,0-.3-10.3-.61-20.59-.76-30.89q-.11-6.75-.19-13.5-.19-13.55-.36-27.11-.41-32.55-.77-65.11h1.1q.19,12.66.41,25.31.12,7.38.25,14.76.21,12.52.41,25.06C213.29,89,213.56,112.78,213.5,136.6Z"></path><path d="M215.23,0q-.47,12.66-.9,25.34-.69,19.89-1.4,39.79-.5,13.55-1,27.09-.9,22.2-2.09,44.37c0,.23-.65.22-.65,0,.22-10.3.45-20.6.84-30.9q.75-20.28,1.54-40.58l1-25q.79-20,1.61-40.07Z"></path></g><path d="M223.36,140.93c.31,7.72-.24,14-2.09,14.49s-6.45-3-11.58-7.79c-6.82,2.81-12.75,4.34-14.11,2.57s.5-7.3,3.52-13.77c-4.72-5.69-8-10.92-7.12-12.85s7.11-1.79,14.5-.66c4.27-6.78,8.53-12,10.4-11.52s3.83,7,5.05,14.93c6.92,2,12.31,4.3,12.31,6S229.51,137.43,223.36,140.93Z" style="fill:#FFC727"></path><path d="M422.12,368.07c0,.61-.64.62-.65,0q-.47-41.61-.77-83.24-.09-18.18-.19-36.35l-.36-73.05q-.4-87.72-.77-175.44h1.1l.42,68.2.24,39.77q.23,33.76.41,67.52Q422.11,271.77,422.12,368.07Z" style="fill:#FFC727"></path><path d="M423.85,0q-.45,34.13-.89,68.27-.7,53.6-1.41,107.22-.48,36.49-1,73-.9,59.77-2.09,119.55c0,.62-.65.59-.65,0,.23-27.75.45-55.49.84-83.24q.75-54.67,1.54-109.34l1-67.47L422.76,0Z" style="fill:#FFC727"></path><g style="opacity:0.2"><path d="M422.12,368.07c0,.61-.64.62-.65,0q-.47-41.61-.77-83.24-.09-18.18-.19-36.35l-.36-73.05q-.4-87.72-.77-175.44h1.1l.42,68.2.24,39.77q.23,33.76.41,67.52Q422.11,271.77,422.12,368.07Z"></path><path d="M423.85,0q-.45,34.13-.89,68.27-.7,53.6-1.41,107.22-.48,36.49-1,73-.9,59.77-2.09,119.55c0,.62-.65.59-.65,0,.23-27.75.45-55.49.84-83.24q.75-54.67,1.54-109.34l1-67.47L422.76,0Z"></path></g><path d="M433.94,393.61c.46,11.29-.35,20.53-3.06,21.19s-9.43-4.39-16.94-11.38c-10,4.1-18.65,6.33-20.64,3.75s.72-10.68,5.15-20.15c-6.91-8.32-11.75-16-10.41-18.79s10.39-2.63,21.2-1c6.24-9.93,12.49-17.56,15.22-16.86,2.92.74,5.6,10.31,7.38,21.85,10.13,2.92,18,6.29,18,8.72S442.94,388.48,433.94,393.61Z" style="fill:#FFC727"></path></g><g id="freepik--Clouds--inject-69"><path d="M64.29,385.72s-25.73,5.09-25.73,26.2,33.91,18.93,33.91,18.93,2,18.2,28.19,24.75S145.28,444,145.28,444s6.86,8.38,20.75,8,18.79-10.55,18.79-10.55,15.12,5.82,29.83.36S233,424.66,233,424.66s20.43,2.19,24.11-14.56-19.2-21.84-19.2-21.84-.48-27.14-21.66-34.94c-25.94-9.56-47.8,3.27-47.8,3.27s-25.74-30.21-64.15-23.29S64.29,385.72,64.29,385.72Z" style="fill:#fff"></path><path d="M64.29,385.71c-8.32,2-16.63,6.2-21.68,13.32-3.84,5.63-5.26,13.34-2.46,19.69,5.61,10.82,21.42,12.12,32.3,11.87h.24l0,.24c1.68,9,8.68,16.2,16.63,20.24,18.83,9.61,39.9,6.57,55.67-7.36l.28-.26.25.28c10.09,10.79,31.6,11.1,39.06-2.82,8.81,3,18.75,3.82,27.75,1.14,8.76-2.61,16.87-8.88,20.2-17.52l.14-.37.37,0c7.54.5,16.23-1.37,20.85-7.82,9-14.15-2.58-24.3-16.09-27.67l-.33-.08,0-.34A50.79,50.79,0,0,0,235.63,377c-2.7-10.09-9.33-19.66-19.46-23.26a58.37,58.37,0,0,0-25.53-3.24A59.6,59.6,0,0,0,168.41,357a78.79,78.79,0,0,0-29.24-20c-13.72-5.29-29.48-6.2-43.38-1.09-20.11,7.43-30,29.58-31.5,49.79Zm0,0c1.33-18.91,9.65-39.3,27.26-48.37,14.78-7.29,32.64-6.66,47.83-.87a79.25,79.25,0,0,1,29.35,19.91l-.42-.07a61.31,61.31,0,0,1,33.93-6.61c7.64,1,15.67,2.71,21.89,7.51,9.4,7.3,13.54,19.5,14.25,31l-.35-.42c7.59,2,15.83,5.91,19,13.57,2.9,7.73-1.14,17.14-8.41,20.83A29.06,29.06,0,0,1,233,425.14l.51-.33c-3.5,9-11.78,15.38-20.86,18.09s-19,1.91-28-1.1l.53-.21c-3.78,6.89-11.65,10.72-19.34,10.76s-15.59-2.45-20.86-8.16l.54,0a53.21,53.21,0,0,1-19,10.86,52,52,0,0,1-12.18,2.22c-1,0-3.14,0-4.13,0-15.93-.94-34.51-9.35-38-26.42l.27.23a65,65,0,0,1-10.44-.4c-15.57-1.69-28.27-9.83-22-27.18,4-9.9,14.39-15.46,24.3-17.82Z" style="fill:#dbdbdb"></path><g style="opacity:0.5"><path d="M145.29,444s-18.48,18.2-44.63,11.65-28.19-24.75-28.19-24.75S38.56,433,38.56,411.92,64.3,385.71,64.3,385.71,65.43,354.17,88,339.62c-11.67,7.55-17.15,46.22-17.15,46.22S51.48,395,52.21,406.46c1,15.79,24.11,15.46,24.11,15.46s7.15,18.46,26.93,24.94S145.29,444,145.29,444Z" style="fill:#ebebeb"></path><path d="M184.83,441.4l0,.06c-.43.84-5.5,10.16-18.77,10.5-13.89.36-20.74-8-20.74-8s9.88,5.24,21.33,4.24S184.83,441.4,184.83,441.4Z" style="fill:#ebebeb"></path></g><path d="M293.13,125.52a.41.41,0,0,0-.79,0c-1.34,14.35-.87,28.82-.65,43.2s-.32,18.84.58,33.21c0,.5.9.5.94,0,.89-14.37.35-18.82.57-33.21S294.47,139.87,293.13,125.52Z" style="fill:#c7c7c7"></path><path d="M301.85,213.7c0,8.64-5.93,11.69-9.12,11.69s-9.11-3.06-9.11-11.69,9.11-22.44,9.11-22.44C293,191.7,301.85,205.21,301.85,213.7Z" style="fill:#FFC727"></path><path d="M301.85,213.7c0,8.64-5.93,11.69-9.12,11.69s-9.11-3.06-9.11-11.69,9.11-22.44,9.11-22.44C293,191.7,301.85,205.21,301.85,213.7Z" style="fill:#fff;opacity:0.4"></path><path d="M323.29,127a.47.47,0,0,0-.91,0c-1.49,18.42-.79,27.1-.67,45.56s.1,37,.58,55.57c0,.57,1.07.58,1.08,0,.48-18.52.46-37,.58-55.57S324.78,145.45,323.29,127Z" style="fill:#c7c7c7"></path><path d="M332,244.24c0,8.64-5.93,11.69-9.12,11.69s-9.11-3.06-9.11-11.69,9.11-22.44,9.11-22.44C323.12,222.24,332,235.75,332,244.24Z" style="fill:#dbdbdb"></path><path d="M355.89,108.64c0-.48-.89-.48-.9,0-.65,29.28-1.22,48.58.19,77.86,0,.28.51.28.52,0C357.12,157.22,356.54,137.92,355.89,108.64Z" style="fill:#c7c7c7"></path><path d="M364.56,195.91c0,8.64-5.93,11.69-9.13,11.69s-9.11-3.06-9.11-11.69,9.11-22.44,9.11-22.44C355.73,173.92,364.56,187.42,364.56,195.91Z" style="fill:#FFC727"></path><path d="M364.56,195.91c0,8.64-5.93,11.69-9.13,11.69s-9.11-3.06-9.11-11.69,9.11-22.44,9.11-22.44C355.73,173.92,364.56,187.42,364.56,195.91Z" style="fill:#fff;opacity:0.4"></path><path d="M388.92,118.93a.26.26,0,0,0-.51,0c-1.34,9.6-.82,19.53-.83,29.18s0,9.46.07,19.19c.12,19.45-.08,38.92.49,58.36,0,.57,1,.57,1.05,0,.58-19.44.38-38.91.5-58.36.06-9.46.06-8.92.06-18.38C389.76,139,390.3,128.79,388.92,118.93Z" style="fill:#c7c7c7"></path><path d="M397.79,234c0,8.64-5.93,11.69-9.12,11.69s-9.11-3.06-9.11-11.69,9.11-22.45,9.11-22.45C389,212,397.79,225.48,397.79,234Z" style="fill:#dbdbdb"></path><path d="M420,120.59a.35.35,0,0,0-.68,0c-1.5,17.12-.59,34.56-.55,51.72s-.79,24.6.65,41.72a.25.25,0,0,0,.48,0c1.44-17.12.62-24.56.65-41.72S421.47,137.71,420,120.59Z" style="fill:#c7c7c7"></path><path d="M428.75,212.65c0,8.64-5.93,11.69-9.13,11.69s-9.11-3.06-9.11-11.69,9.11-22.45,9.11-22.45C419.92,190.65,428.75,204.15,428.75,212.65Z" style="fill:#FFC727"></path><path d="M428.75,212.65c0,8.64-5.93,11.69-9.13,11.69s-9.11-3.06-9.11-11.69,9.11-22.45,9.11-22.45C419.92,190.65,428.75,204.15,428.75,212.65Z" style="fill:#fff;opacity:0.4"></path><path d="M278.12,94.35s-24.41,4.84-24.41,24.86,32.17,18,32.17,18,1.93,17.27,26.74,23.48S355,149.6,355,149.6s6.5,7.94,19.68,7.6,17.83-10,17.83-10,14.34,5.53,28.29.35S438.2,131.3,438.2,131.3s19.38,2.07,22.86-13.81-18.21-20.72-18.21-20.72S442.39,71,422.31,63.62C397.69,54.56,377,66.73,377,66.73s-24.42-28.66-60.85-22.1S278.12,94.35,278.12,94.35Z" style="fill:#fff"></path><path d="M278.12,94.35c-7.89,1.93-15.77,5.88-20.56,12.64-3.64,5.33-5,12.65-2.33,18.67,5.36,10.28,20.27,11.48,30.63,11.25h.24l0,.24c1.25,6.75,5.81,12.63,11.37,16.51a46.94,46.94,0,0,0,28.05,8A48.36,48.36,0,0,0,355,149.08c9.45,10.52,30.16,10.92,37.28-2.41,8.36,2.88,17.79,3.63,26.33,1.09,8.3-2.47,16-8.42,19.14-16.61l.14-.36.38,0c7.13.47,15.37-1.3,19.75-7.41,8.49-13.41-2.45-23-15.25-26.21l-.33-.08v-.34a48.4,48.4,0,0,0-1.77-10.73c-2.56-9.57-8.85-18.64-18.45-22.06A55.51,55.51,0,0,0,398,60.91a56.89,56.89,0,0,0-21.11,6.23,74.7,74.7,0,0,0-27.73-19c-14.27-5.48-31-6.08-45,.64-16.69,8.46-24.64,27.69-26,45.55Zm0,0c1.26-17.94,9.15-37.29,25.85-45.9,14-6.92,31-6.32,45.39-.83a75.28,75.28,0,0,1,27.85,18.89l-.42-.07A58.13,58.13,0,0,1,409,60.17c7.26.95,14.88,2.57,20.79,7.12,8.91,6.94,12.85,18.51,13.52,29.47l-.35-.42c7.21,1.93,15,5.6,18.06,12.89,2.76,7.34-1.07,16.28-8,19.79a27.72,27.72,0,0,1-14.87,2.76l.52-.33c-3.34,8.58-11.19,14.6-19.82,17.17s-18,1.82-26.53-1.05l.53-.21c-3.59,6.55-11.06,10.18-18.36,10.23s-14.81-2.33-19.81-7.76l.54,0c-13.51,12-31.92,15.83-48.81,9.12-9.7-3.57-18.78-11.19-20.78-21.78l.27.23c-10.54.24-25.59-1.16-30.95-11.64-2.66-6.12-1.25-13.52,2.47-18.9,4.86-6.75,12.78-10.66,20.71-12.54Z" style="fill:#dbdbdb"></path><path d="M394.63,93c0-.23-.36-.16-.39,0-.51,3.52-2.08,16.87-7.27,17-4.82.15-8.61-11.44-9.71-15.59-.06-.22-.35-.14-.34.08.22,5.43,3.45,19.41,10.91,18.15C394.3,111.61,395.35,97,394.63,93Z" style="fill:#c7c7c7"></path><path d="M320.18,93c.05-.23.36-.16.39,0,.52,3.52,2.09,16.87,7.27,17,4.82.15,8.62-11.44,9.71-15.59.06-.22.35-.14.34.08-.22,5.43-3.44,19.41-10.9,18.15C320.51,111.61,319.46,97,320.18,93Z" style="fill:#c7c7c7"></path><path d="M347.92,102.17a21.76,21.76,0,0,0,4.53,3.06,11.67,11.67,0,0,0,4.87,1.24,9.94,9.94,0,0,0,4.85-1,15.58,15.58,0,0,0,4.32-3.25,9.08,9.08,0,0,1-3.4,4.75,9.22,9.22,0,0,1-5.83,1.8,10.16,10.16,0,0,1-5.72-2A10.49,10.49,0,0,1,347.92,102.17Z" style="fill:#c7c7c7"></path><path d="M461.07,117.49c-1.63,7.4-6.72,10.91-11.68,12.53.48-.34,8.54-6,8.1-15.66-.46-9.93-18.19-17.1-18.19-17.1s-7.6-22.91-23.15-28.13C392.78,61.27,374.6,75,374.6,75s-12.55-12.77-28.78-20.57S305.9,47.75,291.3,58.9h0a40.76,40.76,0,0,1,24.81-14.26C352.54,38.07,377,66.73,377,66.73s20.73-12.17,45.34-3.11c20.09,7.4,20.54,33.15,20.54,33.15S464.55,101.61,461.07,117.49Z" style="fill:#ebebeb;opacity:0.5"></path></g><g id="freepik--Character--inject-69"><path d="M280.37,334.14c-1.17-.48.88-22.3-2.8-43.71-4.46-26-12.75-40.65-12.11-42.25,1.3-3.27,5.85-1.41,6.49-1.58s24.12-12.95,42.24-9,37.68,25.17,38,44.79-12.4,54.94-67.72,50.52C284.11,332.93,283,335.2,280.37,334.14Z" style="fill:#455a64"></path><path d="M272.8,250.35a74.33,74.33,0,0,1,5.07,9,102.82,102.82,0,0,1,3.91,9.61,110.83,110.83,0,0,1,6.1,40.85,102,102,0,0,1-.87,10.33c-.15,1.71-.56,3.4-.86,5.1s-.65,3.38-1,5.06c.14-1.72.31-3.43.49-5.13s.42-3.41.43-5.13c.14-3.42.41-6.83.29-10.26l0-2.56c0-.85,0-1.71,0-2.56l-.31-5.11c-.05-1.71-.32-3.4-.49-5.09s-.33-3.4-.65-5.07l-.82-5.06-1-5q-1.14-5-2.62-9.9A115.89,115.89,0,0,0,272.8,250.35Z" style="fill:#37474f"></path><path d="M370.58,303.07c10.14,2.6,26,46.15,14.74,50.16-9.05,3.23-35.3-21.19-33-35.5C353.83,308.22,363.48,301.24,370.58,303.07Z" style="fill:#ffc4c0"></path><path d="M290.6,290.78c1-16.31,12.69-46.84,30.32-50.52s35.68,7.88,36.6,30.45c.72,17.6-7.59,34.88-7.59,34.88s15-4.26,19.31-2.87c8.51,2.74,15.83,20.37,6.15,29.56-6.91,6.57-53,35-74.54,9.06C288.56,326.58,289.33,311,290.6,290.78Z" style="fill:#ffc4c0"></path><path d="M350.74,302.93a42.83,42.83,0,0,1-7.42,12.22c-1.51,1.75-3.09,3.39-4.75,5a38.69,38.69,0,0,1-5.71,4.84.21.21,0,0,0,.22.36c1.1-.65,2.27-1.16,3.33-1.87a37.43,37.43,0,0,0,3-2.29,31,31,0,0,0,5-5.27,42.91,42.91,0,0,0,6.54-12.9C351,302.89,350.79,302.82,350.74,302.93Z" style="fill:#263238"></path><path d="M369.89,331.39a31.93,31.93,0,0,1-7.2,7.78c-1.31,1-2.67,1.93-4.05,2.8a25.88,25.88,0,0,1-4.65,2.45c-.18.06-.1.38.08.32.83-.25,1.69-.38,2.52-.68A22.49,22.49,0,0,0,359,343a20.56,20.56,0,0,0,4.26-2.95,33.42,33.42,0,0,0,6.75-8.52C370.05,331.41,369.94,331.31,369.89,331.39Z" style="fill:#263238"></path><path d="M267.46,249.32c17.43,27.54,15.38,80.44,12.54,83.05,0,0-53.49,13.81-88.68-36.11-1.89-2.68,32.6-33.62,41.3-40.44,8.14-6.39,24.31-6.43,32.28-7C266.25,248.68,267.15,248.82,267.46,249.32Z" style="fill:#ffc4c0"></path><g style="opacity:0.1"><path d="M240.49,295a2.08,2.08,0,0,0-2.64,1.33,2.42,2.42,0,0,0,1.27,3.1,1.63,1.63,0,0,0,2.11-1,2,2,0,0,0,.45-.53A2.13,2.13,0,0,0,240.49,295Z"></path><path d="M220.42,314.52a2.09,2.09,0,0,0-2.64,1.33,2.43,2.43,0,0,0,1.27,3.1,1.65,1.65,0,0,0,2.12-1,2.37,2.37,0,0,0,.45-.53A2.13,2.13,0,0,0,220.42,314.52Z"></path><path d="M255.56,326.92c-.14,0-.27.2-.16.33a5.52,5.52,0,0,0,.74.62c.14.12.53.49.41.72s-.61.17-.81.06a4.25,4.25,0,0,1-2-2.2.17.17,0,0,0-.32.11c.36,1.28,1.72,4.06,3.51,3.3a1.4,1.4,0,0,0,.65-1.79A2,2,0,0,0,255.56,326.92Z"></path></g><path d="M168.12,332.93c13.63,7.35,52.48,19.49,69.31,6.32,18.41-14.42,32.33-39.51,32.22-48.95-.3-25.89-26.16-27.36-36.35-15.76-12.81,14.58-13.25,21.36-20.79,30.45-.55.66-16.42-6.31-38.94-.31C166.32,306.61,161.54,329.38,168.12,332.93Z" style="fill:#ffc4c0"></path><path d="M200.6,302.55a36.82,36.82,0,0,1,12.94,2.88c1,.41,2,.91,3,1.39s1.95,1,2.84,1.68a27.93,27.93,0,0,1,5,4.15,57.17,57.17,0,0,0-5.46-3.48,49.62,49.62,0,0,0-5.83-2.81,62.91,62.91,0,0,0-6.13-2.19C204.89,303.55,202.77,303,200.6,302.55Z" style="fill:#263238"></path><path d="M212.49,305.53c1.14-2.4,2.43-4.69,3.77-6.95s2.74-4.48,4.16-6.68,2.92-4.36,4.46-6.48,3.1-4.23,4.77-6.3a56.49,56.49,0,0,1-3.5,7.11c-1.28,2.3-2.68,4.53-4.11,6.73s-2.94,4.36-4.53,6.45A77,77,0,0,1,212.49,305.53Z" style="fill:#263238"></path><path d="M226,280.66a13.86,13.86,0,0,1-.39,3.82,13.5,13.5,0,0,1-1.33,3.6,15.26,15.26,0,0,1,1.72-7.42Z" style="fill:#263238"></path><path d="M266.34,304.44a203.53,203.53,0,0,1-11.64,18.68c-10.93,14.57-20,17.92-20,17.92a99,99,0,0,0,18.71-18.92C257.79,316.33,262.08,310.41,266.34,304.44Z" style="fill:#263238"></path><path d="M266.21,308.17a17.05,17.05,0,0,1-2.9,3.81,14.94,14.94,0,0,1-3.81,2.91,25.14,25.14,0,0,1,3-3.66A21.37,21.37,0,0,1,266.21,308.17Z" style="fill:#263238"></path><path d="M177.65,304c-1.05.08-11.13-6.13-13.91-7.88s-15-3.28-17-3.16-7.57,3.24-7.63,4.8a7.83,7.83,0,0,0,.08,2,10.8,10.8,0,0,0-2.52,2.6c-1.07,1.61-.84,4.84-.84,4.84a6.78,6.78,0,0,0-.87,5.11c.76,2.92,2.2,3.63,2.2,3.63a8.43,8.43,0,0,0-.13,6.41c1.42,3.07,5.28,4.48,6.77,4.82s3.68-1.12,3.68-1.12a29,29,0,0,0,5.29,3.79c2.59,1.31,9.49,3.41,12.06,2.85a12.09,12.09,0,0,1,4.48-.2Z" style="fill:#ffc4c0"></path><path d="M139.16,299.78c2.08-.46,4.07-1.48,6.13-1.8a41.8,41.8,0,0,0,5.13.13,17.87,17.87,0,0,0-5.08-1.22,12,12,0,0,0-6.18,2.89Z" style="fill:#263238"></path><path d="M135.8,307.22a30.83,30.83,0,0,1,9.85-1.25,8.9,8.9,0,0,0-9.85,1.25Z" style="fill:#263238"></path><path d="M137.13,316a13,13,0,0,1,8.72-1.15c.18.06.42.09.49.29,0-.24-.19-.42-.35-.55-2.68-1.82-7-1.38-8.86,1.41Z" style="fill:#263238"></path><path d="M142.89,320.47a7.84,7.84,0,0,0,4.56,5.6,24.6,24.6,0,0,0-4.56-5.6Z" style="fill:#263238"></path><path d="M141.84,322.14a2.56,2.56,0,0,0,3.43,1.73,6.85,6.85,0,0,0-3.43-1.73Z" style="fill:#263238"></path><path d="M169.28,332.51a1.81,1.81,0,0,0,1-.76,16.12,16.12,0,0,0,2.39-8.52c-1.14,2.73-1.65,5.58-2.73,8.3a2,2,0,0,1-.7,1Z" style="fill:#263238"></path><path d="M170.47,326.28a32.09,32.09,0,0,0-.72,3.13,11.52,11.52,0,0,1-.75,3.06,2.64,2.64,0,0,0,.88-1.38,11.71,11.71,0,0,0,.59-4.81Z" style="fill:#263238"></path><path d="M235.71,239.38c3.8,21.47-7.36,38.53-15,46.55-11.78,12.42-48.89,39.81-74.34,21-5.9-4.35-12.09-12.31-17.63-21.54-10.59-17.67-18.77-40-17.89-50.71,1.89-22.69,26.59-49.92,59-53.87C196,177.66,231.91,217.91,235.71,239.38Z" style="fill:#ffc4c0"></path><path d="M175.9,239.7a35,35,0,0,1-3.91.88c-1.51.32-2.67.74-4.16.14a2.06,2.06,0,0,1-1.05-2.29c.55-1.88,2.3-2.73,4.1-3.19a7.53,7.53,0,0,1,5.4.45C178,236.51,177.62,239.15,175.9,239.7Z" style="fill:#FFC727"></path><path d="M175.9,239.7a35,35,0,0,1-3.91.88c-1.51.32-2.67.74-4.16.14a2.06,2.06,0,0,1-1.05-2.29c.55-1.88,2.3-2.73,4.1-3.19a7.53,7.53,0,0,1,5.4.45C178,236.51,177.62,239.15,175.9,239.7Z" style="opacity:0.2"></path><path d="M135.9,261.75a35.61,35.61,0,0,0,2.83-2.8c1.07-1.09,2-1.84,2.33-3.41a2,2,0,0,0-1.36-2.1c-1.86-.54-3.5.47-4.85,1.72a7.48,7.48,0,0,0-2.5,4.76C132.09,261.84,134.52,262.89,135.9,261.75Z" style="fill:#FFC727"></path><path d="M135.9,261.75a35.61,35.61,0,0,0,2.83-2.8c1.07-1.09,2-1.84,2.33-3.41a2,2,0,0,0-1.36-2.1c-1.86-.54-3.5.47-4.85,1.72a7.48,7.48,0,0,0-2.5,4.76C132.09,261.84,134.52,262.89,135.9,261.75Z" style="opacity:0.2"></path><path d="M147.06,258.33c3.48,7.78,2.49,4.86,5.63,12.78-1.51,1.1-8.71,5.64-7.79,6,3.32,1.13,11.5,1.62,11.51,1.69.35,2.46-1.66,6.56-1.41,6.62,14.5,3.6,20.38-6.89,21.61-11.69.25-1,0-.81-.21-.32-1.77,4-8.81,12.68-18.94,10.33a12.08,12.08,0,0,0,.32-5.89c-.05-.24-6.62-.87-9.51-1.63,2.13-1.46,4.86-3.07,6.44-4.13.38-.25-1.94-6.6-7-14.11A.38.38,0,0,0,147.06,258.33Z" style="fill:#263238"></path><path d="M142.64,272.32a6.14,6.14,0,0,0,2.48,2.1,4.45,4.45,0,0,0,3.54-.08,4,4,0,0,0,2.15-2.86,7,7,0,0,0-.22-3.2,12.25,12.25,0,0,0-.71-1.8,8.65,8.65,0,0,0-2.46-3.14,13.24,13.24,0,0,1,1.12,2.68,17.47,17.47,0,0,1,.57,2.57c.25,1.77,0,3.49-1.31,4s-2.75.06-4-1.25a28.9,28.9,0,0,1-3.33-4.49A12.6,12.6,0,0,0,142.64,272.32Z" style="fill:#263238"></path><path d="M173.67,256.57a6.14,6.14,0,0,0,2.48,2.1,4.45,4.45,0,0,0,3.54-.08,4,4,0,0,0,2.15-2.86,7,7,0,0,0-.22-3.2,12.25,12.25,0,0,0-.71-1.8,8.65,8.65,0,0,0-2.46-3.14,12.65,12.65,0,0,1,1.11,2.68,16.33,16.33,0,0,1,.58,2.57c.24,1.77,0,3.49-1.31,4s-2.75.06-4-1.25a28.9,28.9,0,0,1-3.33-4.49A12.6,12.6,0,0,0,173.67,256.57Z" style="fill:#263238"></path><path d="M201,300.41c-4.73,2.14-8.91,5.24-13.74,7.22a55.29,55.29,0,0,1-14.54,4.09c-20.18,2.33-29.94-9.1-33.6-11.94-.28-.22-.36,0-.12.26,3.33,3.78,11.23,14.4,31.67,13.72,4.7-.16,9.74-1.58,14.21-3a61.28,61.28,0,0,0,13-6.21c4.66-2.87,10.09-6.54,15.69-3.79.15.08.29-.13.14-.22C209.92,298.06,205,298.6,201,300.41Z" style="fill:#263238"></path><path d="M225.53,288.13a13.37,13.37,0,0,1,.05-5.87,27.42,27.42,0,0,1,2-5.56c1.68-3.53,3.52-6.89,5.05-10.42A32.91,32.91,0,0,0,236,255.52,110.55,110.55,0,0,0,236.3,244a48.83,48.83,0,0,1,1.21,11.66,24.24,24.24,0,0,1-1,5.91,45.82,45.82,0,0,1-2.16,5.52c-1.6,3.57-3.57,7-5.48,10.3a33.59,33.59,0,0,0-2.46,5.14A15.66,15.66,0,0,0,225.53,288.13Z" style="fill:#263238"></path><path d="M208.21,236.38s-1.63-19.2,6.42-25c8.52-6.17,20.89,8.52,19.29,19.09-1.88,12.41-14.56,16.76-14.56,16.76Z" style="fill:#ffc4c0"></path><path d="M208.21,236.38c-.81-8-1-18.93,5.1-25.1,8.18-7,18.19,3.33,20.62,11.24,4,10.68-4.47,21.64-14.57,24.67,9-3.92,16.68-14.09,12.78-24.05-2.26-6.52-10.42-16.3-17.66-10.55-5.76,5.59-6.12,16.13-6.27,23.79Z" style="fill:#263238"></path><path d="M218.18,222.42a24.79,24.79,0,0,1,2.17-5.67c.12-.21-.22-.41-.35-.22-4.56,6.71-5.92,17.12-.22,23.72a.27.27,0,0,0,.47-.26c-.26-.75-.53-1.48-.78-2.2-.06-2.47-.12-4.7.89-7.09a13.7,13.7,0,0,1,4.56-5.71c.24-.17,0-.5-.27-.36a13.63,13.63,0,0,0-6.45,9.12,22,22,0,0,1-.75-6,25.15,25.15,0,0,1,.73-5.31" style="fill:#263238"></path><path d="M220.93,245.71c-.06,0,0,.11,0,.09S221,245.68,220.93,245.71Z" style="fill:#263238"></path><path d="M150.65,186.15c9.44,2.58,12.8,14.17,7.59,23.07-8.49,14.51-5.8,15.55-2.14,17.64,0,0-9.77.67-9.75-8.93,0,0-5.45,16.06,9.56,19.85,0,0-22.94,3.46-22.69-18.11,0,0-5.55,7.64-2.34,13,0,0-7.89-12.74-4.7-26.47C129.41,192.23,142.55,183.93,150.65,186.15Z" style="fill:#FFC727"></path><path d="M150.65,186.15c9.44,2.58,12.8,14.17,7.59,23.07-8.49,14.51-5.8,15.55-2.14,17.64,0,0-9.77.67-9.75-8.93,0,0-5.45,16.06,9.56,19.85,0,0-22.94,3.46-22.69-18.11,0,0-5.55,7.64-2.34,13,0,0-7.89-12.74-4.7-26.47C129.41,192.23,142.55,183.93,150.65,186.15Z" style="opacity:0.2"></path><path d="M164.94,278.27c-2.54,1.23-4.4.21-8.57,2.47-2.68,1.46-3.7,6.59-.74,10.87,3.58,5.15,9.38,7.4,17,4.57,10.31-3.85,13.43-13.36,10.83-18.54s-7.06-5.5-10.33-4.84S166.49,277.52,164.94,278.27Z" style="fill:#FFC727"></path><path d="M176.92,283.59a9,9,0,1,1-11.74-4.65A8.93,8.93,0,0,1,176.92,283.59Z" style="fill:#FFC727"></path><path d="M176.92,283.59a9,9,0,1,1-11.74-4.65A8.93,8.93,0,0,1,176.92,283.59Z" style="fill:#fff;opacity:0.4"></path><path d="M175,284.37a7.83,7.83,0,1,1-10.43-4.7A8.12,8.12,0,0,1,175,284.37Z" style="fill:#fff;opacity:0.4"></path><path d="M168.38,302.4c-6.8.36-9.6-6.31-10.33-8.5-.82-2.43-.64-3,.08-3.32.13-.07.91-.53,1.55-.92l1.08,1.79-1.07.64c.32,1.36,1.48,4.87,4.07,6.85a7,7,0,0,0,5.92,1.19,8.75,8.75,0,0,0,5.95-4.48,18.79,18.79,0,0,0,1.68-12c-.44.18-1,.42-1.43.64l-.9-1.88c2.77-1.33,3-1.22,3.44-1.05l.6.64a20.56,20.56,0,0,1-1.57,14.65,10.75,10.75,0,0,1-7.34,5.49A11,11,0,0,1,168.38,302.4Z" style="fill:#FFC727"></path><path d="M168.38,302.4c-6.8.36-9.6-6.31-10.33-8.5-.82-2.43-.64-3,.08-3.32.13-.07.91-.53,1.55-.92l1.08,1.79-1.07.64c.32,1.36,1.48,4.87,4.07,6.85a7,7,0,0,0,5.92,1.19,8.75,8.75,0,0,0,5.95-4.48,18.79,18.79,0,0,0,1.68-12c-.44.18-1,.42-1.43.64l-.9-1.88c2.77-1.33,3-1.22,3.44-1.05l.6.64a20.56,20.56,0,0,1-1.57,14.65,10.75,10.75,0,0,1-7.34,5.49A11,11,0,0,1,168.38,302.4Z" style="opacity:0.1"></path></g></svg>